{"title":"The.Eagle.2011.UNRATED.720p.BRRip.720p.x264.Feel-Free","uid":6462118,"size":2931036193,"categoryP":"video","categoryS":"hd___movies","magnet":"?xt=urn:btih:fe3472d708604f60f95ad809e661c7a810f4a2d7&amp;dn=The.Eagle.2011.UNRATED.720p.BRRip.720p.x264.Feel-Free&amp;tr=udp%3A%2F%2Ftracker.openbittorrent.com%3A80&amp;tr=udp%3A%2F%2Fopen.demonii.com%3A1337&amp;tr=udp%3A%2F%2Ftracker.coppersurfer.tk%3A6969&amp;tr=udp%3A%2F%2Fexodus.desync.com%3A6969","seeders":0,"leechers":1,"uploader":"hiest","files":-1,"time":1307807998,"description":" Full Credits To Feel Free :)\n ######## ######## ######## ##          ######## ########  ######## ######## \n ##       ##       ##       ##          ##       ##     ## ##       ##       \n ##       ##       ##       ##          ##       ##     ## ##       ##       \n ######   ######   ######   ##          ######   ########  ######   ######   \n ##       ##       ##       ##          ##       ##   ##   ##       ##       \n ##       ##       ##       ##          ##       ##    ##  ##       ##       \n ##       ######## ######## ########    ##       ##     ## ######## ######## \n\n Genre: Adventure | Drama\n Language:English\n IMDb:\n &lt;a href=&quot; http://www.imdb.com/title/tt1034389/&quot; rel=&quot;nofollow&quot; target=&quot;_NEW&quot;&gt; http://www.imdb.com/title/tt1034389/&lt;/a&gt;\n Source:BluRay.X264-AMIABLE Thanks!\n Subtitles:Romana\n\n Format : MPEG-4\n Format profile : Base Media\n Codec ID : isom\n File size : 2.73 GiB\n Duration : 1h 54mn\n Overall bit rate : 3 420 Kbps\n\n Video\n ID : 1\n Format : AVC\n Format/Info : Advanced Video Codec\n Format profile : &lt;a class=&quot;__cf_email__&quot; href=&quot;/cdn-cgi/l/email-protection&quot; data-cfemail=&quot;b5fddcd2ddf5f9819b84&quot;&gt;[email&amp;#160;protected]&lt;/a&gt;&lt;script cf-hash='f9e31' type=&quot;text/javascript&quot;&gt;\n/* &lt;![CDATA[ */!function(){try{var t=&quot;currentScript&quot;in document?document.currentScript:function(){for(var t=document.getElementsByTagName(&quot;script&quot;),e=t.length;e--;)if(t[e].getAttribute(&quot;cf-hash&quot;))return t[e]}();if(t&amp;&amp;t.previousSibling){var e,r,n,i,c=t.previousSibling,a=c.getAttribute(&quot;data-cfemail&quot;);if(a){for(e=&quot;&quot;,r=parseInt(a.substr(0,2),16),n=2;a.length-n;n+=2)i=parseInt(a.substr(n,2),16)^r,e+=String.fromCharCode(i);e=document.createTextNode(e),c.parentNode.replaceChild(e,c)}}}catch(u){}}();/* ]]&gt; */&lt;/script&gt;\n Format settings, CABAC : Yes\n Format settings, ReFrames : 3 frames\n Format settings, GOP : M=1, N=24\n Codec ID : avc1\n Codec ID/Info : Advanced Video Coding\n Duration : 1h 54mn\n Bit rate mode : Variable\n Bit rate : 3 000 Kbps\n Maximum bit rate : 22.0 Mbps\n Width : 1 280 pixels\n Height : 544 pixels\n Display aspect ratio : 2.35:1\n Frame rate mode : Constant\n Frame rate : 23.976 fps\n Color space : YUV\n Chroma subsampling : 4:2:0\n Bit depth : 8 bits\n Scan type : Progressive\n Bits/(Pixel*Frame) : 0.180\n Stream size : 2.37 GiB (87%)\n Writing library : x264\n\n Audio\n ID : 2\n Format : AAC\n Format/Info : Advanced Audio Codec\n Format version : Version 4\n Format profile : LC\n Format settings, SBR : No\n Codec ID : 40\n Duration : 1h 54mn\n Bit rate mode : Variable\n Bit rate : 445 Kbps\n Maximum bit rate : 541 Kbps\n Channel(s) : 6 channels\n Channel positions : Front: L C R, Side: L R, LFE\n Sampling rate : 48.0 KHz\n Stream size : 363 MiB (13%)\n\n\n Plot:\n In Roman-ruled Britain, a young Roman soldier endeavors to honor his \n father's memory by finding his lost legion's golden emblem.\n\n\n\n\n\n ==================================\n &lt;a href=&quot; http://thepiratebay.se/user/hiest&quot; rel=&quot;nofollow&quot; target=&quot;_NEW&quot;&gt; http://thepiratebay.se/user/hiest&lt;/a&gt;\n ==================================\n\n\n\n\n\n Screen Shots:\n\n &lt;a href=&quot; http://leetleech.org/images/92569771574903567079.png&quot; rel=&quot;nofollow&quot; target=&quot;_NEW&quot;&gt; http://leetleech.org/images/92569771574903567079.png&lt;/a&gt;\n\n &lt;a href=&quot; http://leetleech.org/images/84987889219023490638.png&quot; rel=&quot;nofollow&quot; target=&quot;_NEW&quot;&gt; http://leetleech.org/images/84987889219023490638.png&lt;/a&gt;\n\n &lt;a href=&quot; http://leetleech.org/images/51940045121007326489.png&quot; rel=&quot;nofollow&quot; target=&quot;_NEW&quot;&gt; http://leetleech.org/images/51940045121007326489.png&lt;/a&gt;\n\n &lt;a href=&quot; http://leetleech.org/images/94954980799809664731.png&quot; rel=&quot;nofollow&quot; target=&quot;_NEW&quot;&gt; http://leetleech.org/images/94954980799809664731.png&lt;/a&gt;\n\n\n Full Credits To Feel Free :)\n ######## ######## ######## ##          ######## ########  ######## ######## \n ##       ##       ##       ##          ##       ##     ## ##       ##       \n ##       ##       ##       ##          ##       ##     ## ##       ##       \n ######   ######   ######   ##          ######   ########  ######   ######   \n ##       ##       ##       ##          ##       ##   ##   ##       ##       \n ##       ##       ##       ##          ##       ##    ##  ##       ##       \n ##       ######## ######## ########    ##       ##     ## ######## ######## ","torrent":{"xt":"urn:btih:fe3472d708604f60f95ad809e661c7a810f4a2d7","amp;dn":"The.Eagle.2011.UNRATED.720p.BRRip.720p.x264.Feel-Free","amp;tr":["udp%3A%2F%2Ftracker.openbittorrent.com%3A80","udp%3A%2F%2Fopen.demonii.com%3A1337","udp%3A%2F%2Ftracker.coppersurfer.tk%3A6969","udp%3A%2F%2Fexodus.desync.com%3A6969"],"infoHash":"fe3472d708604f60f95ad809e661c7a810f4a2d7","infoHashBuffer":{"type":"Buffer","data":[254,52,114,215,8,96,79,96,249,90,216,9,230,97,199,168,16,244,162,215]},"announce":[],"urlList":[]}}